<?xml version="1.0" encoding="UTF-8" standalone="no"?>
<!-- Created with Inkscape (http://www.inkscape.org/) -->

<svg
   xmlns:dc="http://purl.org/dc/elements/1.1/"
   xmlns:cc="http://creativecommons.org/ns#"
   xmlns:rdf="http://www.w3.org/1999/02/22-rdf-syntax-ns#"
   xmlns:svg="http://www.w3.org/2000/svg"
   xmlns="http://www.w3.org/2000/svg"
   xmlns:sodipodi="http://sodipodi.sourceforge.net/DTD/sodipodi-0.dtd"
   xmlns:inkscape="http://www.inkscape.org/namespaces/inkscape"
   width="210mm"
   height="297mm"
   viewBox="0 0 210 297"
   version="1.1"
   id="svg8"
   sodipodi:docname="pathfinder-logo.svg"
   inkscape:version="0.92.5 (2060ec1f9f, 2020-04-08)">
  <defs
     id="defs2">
    <marker
       inkscape:stockid="Arrow1Lend"
       orient="auto"
       refY="0.0"
       refX="0.0"
       id="marker5328"
       style="overflow:visible;"
       inkscape:isstock="true">
      <path
         id="path5326"
         d="M 0.0,0.0 L 5.0,-5.0 L -12.5,0.0 L 5.0,5.0 L 0.0,0.0 z "
         style="fill-rule:evenodd;stroke:#000000;stroke-width:1pt;stroke-opacity:1;fill:#000000;fill-opacity:1"
         transform="scale(0.8) rotate(180) translate(12.5,0)" />
    </marker>
    <marker
       inkscape:stockid="Arrow1Lend"
       orient="auto"
       refY="0.0"
       refX="0.0"
       id="Arrow1Lend"
       style="overflow:visible;"
       inkscape:isstock="true">
      <path
         id="path5028"
         d="M 0.0,0.0 L 5.0,-5.0 L -12.5,0.0 L 5.0,5.0 L 0.0,0.0 z "
         style="fill-rule:evenodd;stroke:#000000;stroke-width:1pt;stroke-opacity:1;fill:#000000;fill-opacity:1"
         transform="scale(0.8) rotate(180) translate(12.5,0)" />
    </marker>
    <marker
       inkscape:stockid="Arrow1Lstart"
       orient="auto"
       refY="0.0"
       refX="0.0"
       id="Arrow1Lstart"
       style="overflow:visible"
       inkscape:isstock="true">
      <path
         id="path5025"
         d="M 0.0,0.0 L 5.0,-5.0 L -12.5,0.0 L 5.0,5.0 L 0.0,0.0 z "
         style="fill-rule:evenodd;stroke:#000000;stroke-width:1.0pt"
         transform="scale(0.8) translate(12.5,0)" />
    </marker>
  </defs>
  <sodipodi:namedview
     id="base"
     pagecolor="#ffffff"
     bordercolor="#666666"
     borderopacity="1.0"
     inkscape:pageopacity="0.0"
     inkscape:pageshadow="2"
     inkscape:zoom="0.49497475"
     inkscape:cx="434.7072"
     inkscape:cy="454.41431"
     inkscape:document-units="mm"
     inkscape:current-layer="layer1"
     showgrid="false"
     inkscape:window-width="1848"
     inkscape:window-height="1016"
     inkscape:window-x="72"
     inkscape:window-y="27"
     inkscape:window-maximized="1" />
  <metadata
     id="metadata5">
    <rdf:RDF>
      <cc:Work
         rdf:about="">
        <dc:format>image/svg+xml</dc:format>
        <dc:type
           rdf:resource="http://purl.org/dc/dcmitype/StillImage" />
        <dc:title></dc:title>
      </cc:Work>
    </rdf:RDF>
  </metadata>
  <g
     inkscape:label="Layer 1"
     inkscape:groupmode="layer"
     id="layer1">
    <g
       id="g6380"
       transform="matrix(2.2847773,0,0,2.2133779,-118.10281,-18.248326)">
      <rect
         style="stroke:#ffffff;stroke-width:0.19822104;stroke-opacity:1"
         y="51.315475"
         x="80.697922"
         height="27.592262"
         width="30.805059"
         id="rect3713" />
      <g
         transform="matrix(1.1386532,0,0,1.1307787,53.370245,79.361311)"
         id="g4632">
        <path
           style="fill:none"
           inkscape:connector-curvature="0"
           d="M 0,0 H 24 V 24 H 0 Z"
           id="path4618" />
        <path
           inkscape:connector-curvature="0"
           d="m 13.5,5.5 c 1.1,0 2,-0.9 2,-2 0,-1.1 -0.9,-2 -2,-2 -1.1,0 -2,0.9 -2,2 0,1.1 0.9,2 2,2 z M 9.8,8.9 7,23 h 2.1 l 1.8,-8 2.1,2 v 6 h 2 v -7.5 l -2.1,-2 0.6,-3 C 14.8,12 16.8,13 19,13 V 11 C 17.1,11 15.5,10 14.7,8.6 L 13.7,7 C 13.3,6.4 12.7,6 12,6 11.7,6 11.5,6.1 11.2,6.1 L 6,8.3 V 13 H 8 V 9.6 L 9.8,8.9"
           id="path4620" />
      </g>
      <g
         transform="matrix(1.2488964,0,0,1.1386533,111.50298,51.315475)"
         id="g4698">
        <path
           style="fill:none"
           inkscape:connector-curvature="0"
           d="M 0,0 H 24 V 24 H 0 Z"
           id="path4684" />
        <path
           inkscape:connector-curvature="0"
           d="m 12.36,6 0.4,2 H 18 v 6 h -3.36 l -0.4,-2 H 7 V 6 h 5.36 M 14,4 H 5 v 17 h 2 v -7 h 5.6 l 0.4,2 h 7 V 6 h -5.6 z"
           id="path4686" />
      </g>
      <rect
         style="stroke:#ffffff;stroke-width:0.19822106;stroke-opacity:1"
         y="78.907738"
         x="80.697922"
         height="27.592262"
         width="30.805059"
         id="rect3713-5" />
      <path
         transform="scale(0.26458333)"
         inkscape:connector-curvature="0"
         id="path4841"
         d="m 490.57491,253.97711 c -0.0409,-0.12277 -0.44516,-1.95089 -0.89832,-4.0625 -0.45315,-2.11161 -0.86453,-3.97991 -0.91417,-4.15178 -0.0851,-0.29481 -1.05519,-0.3125 -17.13179,-0.3125 h -17.04154 v -12.76786 -12.76786 h 12.55949 12.55949 l 0.74087,3.34822 c 0.40747,1.84151 0.82932,3.77009 0.93745,4.28571 l 0.19658,0.9375 h 12.39591 12.39592 v 12.85714 12.85715 h -7.86274 c -6.13148,0 -7.87913,-0.0491 -7.93715,-0.22322 z"
         style="fill:#ff0000;fill-opacity:1;stroke:#ffffff;stroke-width:0.17857143;stroke-opacity:1" />
      <rect
         style="stroke:#ffffff;stroke-width:0.02530818;stroke-opacity:1"
         y="106.41354"
         x="64.910011"
         height="9.590847"
         width="1.4446895"
         id="rect3713-5-6" />
      <rect
         transform="rotate(90)"
         style="stroke:none;stroke-width:0.02530818;stroke-opacity:1"
         y="-74.500862"
         x="116.00439"
         height="9.590847"
         width="1.4446895"
         id="rect3713-5-6-2" />
      <rect
         transform="rotate(90)"
         style="stroke:none;stroke-width:0.02530818;stroke-opacity:1"
         y="-84.091705"
         x="116.00439"
         height="9.590847"
         width="1.4446895"
         id="rect3713-5-6-2-9" />
      <rect
         transform="rotate(90)"
         style="stroke:none;stroke-width:0.02530818;stroke-opacity:1"
         y="-93.682549"
         x="116.00439"
         height="9.590847"
         width="1.4446895"
         id="rect3713-5-6-2-9-1" />
      <rect
         transform="rotate(90)"
         style="stroke:none;stroke-width:0.02530818;stroke-opacity:1"
         y="-103.2734"
         x="116.00439"
         height="9.590847"
         width="1.4446895"
         id="rect3713-5-6-2-9-1-2" />
      <rect
         transform="rotate(90)"
         style="stroke:none;stroke-width:0.02530818;stroke-opacity:1"
         y="-112.86424"
         x="116.00439"
         height="9.590847"
         width="1.4446895"
         id="rect3713-5-6-2-9-1-2-7" />
      <rect
         transform="rotate(90)"
         style="stroke:none;stroke-width:0.02530818;stroke-opacity:1"
         y="-122.45509"
         x="116.00439"
         height="9.590847"
         width="1.4446895"
         id="rect3713-5-6-2-9-1-2-7-0" />
      <rect
         style="stroke:none;stroke-width:0.02530818;stroke-opacity:1"
         y="107.86712"
         x="126.49229"
         height="9.590847"
         width="1.4446895"
         id="rect3713-5-6-2-9-1-2-7-0-9" />
      <rect
         transform="rotate(90)"
         style="stroke:none;stroke-width:0.01647;stroke-opacity:1"
         y="-126.49229"
         x="116.00444"
         height="4.037138"
         width="1.4535277"
         id="rect3713-5-6-2-9-1-2-7-0-3" />
      <rect
         style="stroke:none;stroke-width:0.02530818;stroke-opacity:1"
         y="98.276268"
         x="126.49228"
         height="9.590847"
         width="1.4446895"
         id="rect3713-5-6-2-9-1-2-7-0-9-6" />
      <rect
         style="stroke:none;stroke-width:0.02530818;stroke-opacity:1"
         y="88.685425"
         x="126.49228"
         height="9.590847"
         width="1.4446895"
         id="rect3713-5-6-2-9-1-2-7-0-9-6-0" />
      <rect
         style="stroke:none;stroke-width:0.02530818;stroke-opacity:1"
         y="79.094574"
         x="126.49228"
         height="9.590847"
         width="1.4446895"
         id="rect3713-5-6-2-9-1-2-7-0-9-6-0-6" />
      <path
         transform="rotate(2.0180264,104.16147,-10.482709)"
         inkscape:transform-center-y="-0.96816608"
         inkscape:transform-center-x="0.0014598561"
         d="m 130.22409,72.464146 3.55666,5.697381 -6.71241,0.231462 z"
         inkscape:randomized="0"
         inkscape:rounded="0"
         inkscape:flatsided="true"
         sodipodi:arg2="-0.55806788"
         sodipodi:arg1="-1.6052654"
         sodipodi:r2="1.9388556"
         sodipodi:r1="3.8777115"
         sodipodi:cy="76.339554"
         sodipodi:cx="130.35773"
         sodipodi:sides="3"
         id="path6306"
         style="fill:#1a1a1a;fill-opacity:1;stroke:none;stroke-width:0.025;stroke-linejoin:miter;stroke-miterlimit:4;stroke-dasharray:0.025, 0.05;stroke-dashoffset:0.09448819;stroke-opacity:1"
         sodipodi:type="star" />
      <rect
         style="stroke:#ffffff;stroke-width:0.19822106;stroke-opacity:1"
         y="23.723217"
         x="111.50298"
         height="27.592262"
         width="30.805059"
         id="rect3713-6" />
    </g>
  </g>
</svg>
